<?xml version="1.0" encoding="UTF-8"?>
<svg id="_图层_1" data-name="图层_1" xmlns="http://www.w3.org/2000/svg" version="1.1" viewBox="0 0 600 600">
  <!-- Generator: Adobe Illustrator 29.2.1, SVG Export Plug-In . SVG Version: 2.1.0 Build 116)  -->
  <defs>
    <style>
      .st0 {
        fill: #ffb000;
        fill-rule: evenodd;
      }

      .st1 {
        fill: #fff;
      }

      .st2 {
        fill: #ffd03b;
      }
    </style>
  </defs>
  <rect class="st1" x="197.03" y="144.72" width="207.76" height="306.62"/>
  <path class="st0" d="M88.13,87.87c-30.08,30.06-40.94,72.07-32.58,110.76C22.28,220.09.26,257.47.26,300s22.02,79.91,55.29,101.36c-8.35,38.69,2.51,80.69,32.58,110.77l114.25-114.25v-245.34h196.8v48.54l113.22-113.22c-30.08-30.06-72.08-40.92-110.77-32.57C380.16,22.02,342.78,0,300.26,0s-79.91,22.02-101.36,55.29c-38.69-8.35-80.7,2.51-110.77,32.58h0ZM373.91,226.34h-78.97v36.27h42.71l36.27-36.27ZM373.91,226.34"/>
  <path class="st2" d="M544.97,198.64c8.34-38.69-2.52-80.7-32.58-110.77l-113.22,113.22v25.26h-25.26l-36.27,36.27h49.02v69.63h-91.72v41.69h104.24v73.8h-196.8v-49.86l-114.25,114.25c30.07,30.06,72.07,40.92,110.76,32.58,21.46,33.26,58.84,55.28,101.36,55.28s79.91-22.02,101.36-55.28c38.69,8.34,80.69-2.52,110.77-32.58,30.06-30.08,40.92-72.08,32.58-110.77,33.26-21.46,55.28-58.84,55.28-101.36s-22.02-79.91-55.28-101.36h0ZM544.97,198.64"/>
</svg>