<svg xmlns="http://www.w3.org/2000/svg" enable-background="new 0 0 26 26" viewBox="0 0 26 26" id="instagram-logo">
  <path d="M22,0H4C1.8,0,0,1.8,0,4v18c0,2.2,1.8,4,4,4h18c2.2,0,4-1.8,4-4V4C26,1.8,24.2,0,22,0z M18,13c0,2.757-2.243,5-5,5s-5-2.243-5-5s2.243-5,5-5S18,10.243,18,13z M23,22c0,0.542-0.458,1-1,1H4c-0.542,0-1-0.458-1-1V8h3.76C5.661,9.37,5,11.107,5,13c0,4.418,3.582,8,8,8s8-3.582,8-8c0-1.893-0.661-3.63-1.76-5H23V22z M23,5c0,0.55-0.45,1-1,1h-2c-0.55,0-1-0.45-1-1V3c0-0.55,0.45-1,1-1h2c0.55,0,1,0.45,1,1V5z"></path>
</svg>
